inDegrees=yes
name=ik_S47_A09_T02
DataType=double
version=3
OpenSimVersion=4.3-2021-08-27-4bc7ad9
endheader
time	pelvis_tilt	pelvis_list	pelvis_rotation	pelvis_tx	pelvis_ty	pelvis_tz	hip_flexion_r	hip_adduction_r	hip_rotation_r	knee_angle_r	knee_angle_r_beta	ankle_angle_r	subtalar_angle_r	mtp_angle_r	hip_flexion_l	hip_adduction_l	hip_rotation_l	knee_angle_l	knee_angle_l_beta	ankle_angle_l	subtalar_angle_l	mtp_angle_l	lumbar_extension	lumbar_bending	lumbar_rotation	arm_flex_r	arm_add_r	arm_rot_r	elbow_flex_r	pro_sup_r	wrist_flex_r	wrist_dev_r	arm_flex_l	arm_add_l	arm_rot_l	elbow_flex_l	pro_sup_l	wrist_flex_l	wrist_dev_l
0	0	0	0	0	0.9399999999999999	0	0	0	0	0	0	0	0	0	0	0	0	0	0	0	0	0	0	0	0	0	0	0	0	89.99999999963507	0	0	0	0	0	0	89.99999999869995	0	0
0.02	-15.40042772057305	-6.036125721768855	25.78264336302622	0	0.9399999999999999	0	3.405559759429274	-1.590755489935522	-1.146679202518708	5.270569090242554	0.09198878407857471	0	0	0	3.405559759429274	-1.590755489935522	-1.146679202518708	5.270569090242554	0.09198878407857471	0	0	0	-14.11153033905339	-3.205109845323574	4.650953992547417	48.50660411225325	-2.565612371866528	15.0802124360181	38.72707278472812	117.131859971194	0	0	48.11383382048984	5.305955685551917	17.4409423271296	28.64854356799277	115.5444058524832	0	0
0.04	-14.94295774659203	-6.725930089493364	26.32485407136598	0	0.9399999999999999	0	43.73012890501248	-9.823718575371476	-10.07854849957858	55.62221629844065	0.9707908116642422	0	0	0	43.73012890501248	-9.823718575371476	-10.07854849957858	55.62221629844065	0.9707908116642422	0	0	0	-14.21240121706669	-2.299572139368164	4.365888612121696	48.50495351892103	-2.553076000276362	15.10004229366055	38.70880686694417	117.1103393995975	0	0	48.1544570030875	5.316909726956832	17.40953746623876	28.61863691954713	115.5311171722959	0	0
0.06	-14.93303162923457	-6.729414244320357	26.32619827407403	0	0.9399999999999999	0	43.73092701932756	-9.824202860920108	-10.0784234534761	55.62196509142584	0.9707864272747296	0	0	0	43.73092701932756	-9.824202860920108	-10.0784234534761	55.62196509142584	0.9707864272747296	0	0	0	-14.20565063712142	-2.306433126807096	4.364808903001792	48.49945061333852	-2.54498635346499	15.09609687845034	38.69728495297754	117.1312215419686	0	0	48.14631153792843	5.31300194593537	17.41116103855274	28.61153308226715	115.5210433379515	0	0
0.08	-14.92295970293521	-6.735204762209612	26.32379249577523	0	0.9399999999999999	0	43.73293395662427	-9.825216171959946	-10.07813945139058	55.62131257799294	0.9707750387669121	0	0	0	43.73293395662427	-9.825216171959946	-10.07813945139058	55.62131257799294	0.9707750387669121	0	0	0	-14.20140422163972	-2.313106390010652	4.360117010047547	48.49556014664449	-2.535174193385482	15.07507360860982	38.74214041591466	117.107643547493	0	0	48.13637041570178	5.312370621302774	17.41586126368124	28.67217320278753	115.4941971910347	0	0
0.1	-14.90491850096269	-6.747409908521394	26.33311928240425	0	0.9399999999999999	0	43.73344556915855	-9.825496403935853	-10.07806449242682	55.62114719683478	0.9707721523211814	0	0	0	43.73344556915855	-9.825496403935853	-10.07806449242682	55.62114719683478	0.9707721523211814	0	0	0	-14.19066952160705	-2.331994292145485	4.357864193573715	48.49422780353683	-2.516924837937785	15.05135372909838	38.69126269803547	117.1575423990006	0	0	48.1275371549582	5.288460788525664	17.44096115090636	28.63666725490685	115.4968604934069	0	0
0.12	-14.88800767759501	-6.755136196536284	26.3468713084774	0	0.9399999999999999	0	43.73659440268549	-9.826847945785579	-10.07765545395918	55.62009812702422	0.970753842598904	0	0	0	43.73659440268549	-9.826847945785579	-10.07765545395918	55.62009812702422	0.970753842598904	0	0	0	-14.18220828759361	-2.342056781292317	4.352188031193577	48.45784930477364	-2.510580499602784	15.07289373010852	38.74525374553011	117.1296172590269	0	0	48.11666378912785	5.289970446670472	17.45289355412325	28.71959130104522	115.4435938622731	0	0
0.14	-14.87093982463656	-6.758644374695058	26.36015500582276	0	0.9399999999999999	0	43.73790631359089	-9.827381010339758	-10.07748991452966	55.6196573819261	0.9707461501457797	0	0	0	43.73790631359089	-9.827381010339758	-10.07748991452966	55.6196573819261	0.9707461501457797	0	0	0	-14.16972990374857	-2.350723162631913	4.347735492987781	48.43871427195224	-2.525752030474167	15.05148849876676	38.74256897895813	117.1218988241835	0	-1.077613842297402e-34	48.1333517807941	5.293354226277172	17.40601700620809	28.72404666675213	115.4097872320095	0	-1.077613842297402e-34
0.16	-14.85652013215569	-6.765203454165231	26.36080111714337	0	0.9399999999999999	0	43.73797723117842	-9.827439277452118	-10.07747700941808	55.6196356664157	0.9707457711386244	0	0	0	43.73797723117842	-9.827439277452118	-10.07747700941808	55.6196356664157	0.9707457711386244	0	0	0	-14.15953832894292	-2.36294385306022	4.34496243733884	48.44064127908314	-2.537800512905701	15.03578999377038	38.71735997749225	117.1305641882802	0	0	48.14706860735579	5.29217426284074	17.38465611405164	28.68789247781098	115.4006511357206	0	0
0.18	-14.8435705785133	-6.766163146159783	26.36172922539584	0	0.9399999999999999	0	43.73731361360603	-9.827293050434788	-10.07754193463758	55.61987099906215	0.9707498784681424	0	0	0	43.73731361360603	-9.827293050434788	-10.07754193463758	55.61987099906215	0.9707498784681424	0	0	0	-14.14737368794164	-2.370802244873734	4.344611504481334	48.45802364686729	-2.528818245604674	15.02123473407718	38.6903319383612	117.1364101265384	0	0	48.13538609224356	5.286426508874468	17.3844097302068	28.65764031412749	115.4044339921475	0	0
0.2	-14.81821300042332	-6.767793541057187	26.37644352638322	0	0.9399999999999999	0	43.73874539265506	-9.827962149906474	-10.07734787653431	55.61939883109088	0.9707416375824214	0	0	0	43.73874539265506	-9.827962149906474	-10.07734787653431	55.61939883109088	0.9707416375824214	0	0	0	-14.12631470155679	-2.382780089402491	4.343780327020908	48.43180390369045	-2.499302379074155	15.02258898150804	38.70804344099273	117.1013473642886	0	0	48.13958013889256	5.284168085851384	17.40405929225166	28.69904350909517	115.373903814589	0	0
0.22	-14.78028297479975	-6.773232927806987	26.3831928071661	0	0.9399999999999999	0	43.73896551896649	-9.827943096122738	-10.07733866792863	55.61930953967994	0.9707400791533066	0	0	0	43.73896551896649	-9.827943096122738	-10.07733866792863	55.61930953967994	0.9707400791533066	0	0	0	-14.09442889814473	-2.40460517077388	4.339093250426427	48.39904755532671	-2.452684101122293	15.03607489247231	38.67151041142036	117.0708908995834	0	0	48.09366955044027	5.280324828514589	17.45467117009895	28.62513663033041	115.3640641599852	0	0
0.24	-14.74701420485659	-6.773507493931577	26.40673781364295	0	0.9399999999999999	0	43.74158152732773	-9.829056018722914	-10.07700051518843	55.61843578706166	0.9707248292932698	1.387084853120436e-35	0	0	43.74158152732773	-9.829056018722914	-10.07700051518843	55.61843578706166	0.9707248292932698	1.387084853120436e-35	0	0	-14.06695748031781	-2.417282417742209	4.336527277140037	48.36219676467517	-2.432618128598631	15.05998519631542	38.76582869375687	117.0065019191823	0	0	48.06156438009251	5.278768618872476	17.51947594363441	28.70035522674859	115.317833175659	0	0
